# xmcd
#
# Track frame offsets:
#	150
#	24235
#	47675
#	67347
#	87455
#	106362
#	130007
#	153280
#	170890
#	194217
#
# Disc length: 2892 seconds
#
# Revision: 3406279333
# Processed by: cddbd v1.5.2PL0 Copyright (c) Steve Scherf et al.
# Submitted via: EZCDAudioConverter 8.0.2.1
#
DISCID=8e0b4a0a
DTITLE=Như Quỳnh - Song Ca Đặc Biệt. Không Giờ Rồi
DYEAR=2001
DGENRE=Miscellaneous
TTITLE0=Như Quỳnh, Mạnh Quỳnh - Anh hãy về đi
TTITLE1=Như Quỳnh, Trường Vũ - Không Giờ Rồi
TTITLE2=Như Quỳnh, Đặng Trường Phát - Con sáo sang sông
TTITLE3=Như Quỳnh, Mạnh Đình - Thầm kín
TTITLE4=Như Quỳnh, Thế Sơn - Lúa mùa duyên thắm
TTITLE5=Như Quỳnh, Mạnh Quỳnh - Mười hai bến nước
TTITLE6=Như Quỳnh - Hoa tím bằng lăng
TTITLE7=Như Quỳnh, Đặng Trường Phát - Điệu ru ca tình yêu
TTITLE8=Như Quỳnh - Điệu ru ca tình yêu
TTITLE9=Như Quỳnh, Mạnh Quỳnh - Ngày vui hai đứa
EXTD=
EXTT0=
EXTT1=
EXTT2=
EXTT3=
EXTT4=
EXTT5=
EXTT6=
EXTT7=
EXTT8=
EXTT9=
PLAYORDER=
